<svg width="42" height="42" viewBox="0 0 42 42" fill="none" xmlns="http://www.w3.org/2000/svg">
<rect width="41.2565" height="41.2565" rx="20.6283" fill="#222222"/>
<path d="M20.3818 13.6946C22.1819 13.6946 23.8781 14.4926 25.1211 15.7401V15.7438C25.1211 15.1447 25.5241 14.6916 26.0812 14.6916H26.2226C27.1017 14.6916 27.2778 15.5205 27.2778 15.7821L27.2815 25.0919C27.2203 25.702 27.9115 26.0173 28.2953 25.6253C29.7874 24.0905 31.5757 17.7273 27.3662 14.0432C23.4404 10.6044 18.1713 11.1725 15.3699 13.103C12.3924 15.1602 10.4892 19.7042 12.3379 23.9749C14.3568 28.6309 20.1284 30.0198 23.5634 28.6345C25.3023 27.9324 26.104 30.2799 24.2966 31.0484C21.5725 32.2104 13.981 32.0917 10.4354 25.9518C8.03997 21.8042 8.1667 14.5081 14.5226 10.7282C19.3805 7.83466 25.7901 8.63632 29.654 12.6705C33.6919 16.8917 33.4583 24.7898 29.5163 27.8601C27.7309 29.2564 25.0798 27.8985 25.099 25.8641L25.0791 25.2009C23.8361 26.4322 22.1819 27.1543 20.3818 27.1543C16.8207 27.1543 13.6855 24.0183 13.6855 20.4609C13.6855 16.8652 16.8207 13.6961 20.3818 13.6961V13.6946ZM24.861 20.2038C24.7262 17.5976 22.792 16.0282 20.4548 16.0282H20.3663C17.6725 16.0282 16.176 18.1502 16.176 20.556C16.176 23.2535 17.9834 24.957 20.3553 24.957C23.0027 24.957 24.7409 23.0199 24.8676 20.7284L24.861 20.2038Z" fill="#C89446"/>
</svg>
