<svg width="42" height="42" viewBox="0 0 42 42" fill="none" xmlns="http://www.w3.org/2000/svg">
<rect x="0.0175781" y="0.521484" width="41.2565" height="41.2565" rx="20.6283" fill="#222222"/>
<path fill-rule="evenodd" clip-rule="evenodd" d="M20.6685 12.5547C15.9334 12.5547 12.0957 16.3924 12.0957 21.1275C12.0957 24.9145 14.5513 28.1282 17.9584 29.2627C18.3873 29.3401 18.542 29.0762 18.542 28.8493C18.542 28.6456 18.5352 28.1058 18.5326 27.3916C16.1474 27.909 15.6438 26.2416 15.6438 26.2416C15.2553 25.2514 14.6923 24.9875 14.6923 24.9875C13.9144 24.4555 14.7516 24.4675 14.7516 24.4675C15.6128 24.5277 16.0641 25.3511 16.0641 25.3511C16.829 26.661 18.0719 26.2828 18.5584 26.0636C18.6366 25.5092 18.8601 25.1311 19.1042 24.917C17.2012 24.7013 15.2003 23.9656 15.2003 20.6797C15.2003 19.7454 15.5346 18.9787 16.0804 18.3805C15.9936 18.163 15.6971 17.2906 16.1655 16.1113C16.1655 16.1113 16.8849 15.8801 18.5223 16.9889C19.2216 16.7987 19.9429 16.7016 20.6676 16.7001C21.3923 16.7013 22.1137 16.7984 22.813 16.9889C24.4512 15.8793 25.1697 16.1113 25.1697 16.1113C25.6382 17.2906 25.3442 18.163 25.2548 18.3805C25.8049 18.9787 26.135 19.7445 26.135 20.6797C26.135 23.9742 24.1323 24.6979 22.2225 24.9102C22.5276 25.1749 22.8026 25.6975 22.8026 26.4968C22.8026 27.6434 22.7923 28.5682 22.7923 28.8493C22.7923 29.0788 22.9453 29.3452 23.3828 29.261C26.7882 28.1247 29.2412 24.9136 29.2412 21.1275C29.2412 16.3924 25.4035 12.5547 20.6685 12.5547Z" fill="#C89446"/>
</svg>
