<svg width="42" height="42" viewBox="0 0 42 42" fill="none" xmlns="http://www.w3.org/2000/svg">
<rect x="0.570312" width="41.2565" height="41.2565" rx="20.6283" fill="#222222"/>
<path fill-rule="evenodd" clip-rule="evenodd" d="M21.2212 12.0332C16.4862 12.0332 12.6484 15.8709 12.6484 20.606C12.6484 24.393 15.1041 27.6067 18.5112 28.7412C18.9401 28.8186 19.0948 28.5547 19.0948 28.3278C19.0948 28.1241 19.0879 27.5843 19.0853 26.8701C16.7002 27.3875 16.1965 25.7201 16.1965 25.7201C15.808 24.7299 15.245 24.466 15.245 24.466C14.4672 23.934 15.3043 23.946 15.3043 23.946C16.1656 24.0062 16.6168 24.8296 16.6168 24.8296C17.3818 26.1395 18.6246 25.7613 19.1111 25.5421C19.1893 24.9878 19.4128 24.6096 19.6569 24.3956C17.7539 24.1798 15.753 23.4441 15.753 20.1582C15.753 19.2239 16.0873 18.4572 16.6331 17.859C16.5463 17.6415 16.2498 16.7691 16.7182 15.5899C16.7182 15.5899 17.4376 15.3587 19.075 16.4674C19.7743 16.2772 20.4956 16.1801 21.2203 16.1786C21.9451 16.1798 22.6664 16.2769 23.3657 16.4674C25.0039 15.3578 25.7225 15.5899 25.7225 15.5899C26.1909 16.7691 25.8969 17.6415 25.8076 17.859C26.3576 18.4572 26.6877 19.223 26.6877 20.1582C26.6877 23.4527 24.685 24.1764 22.7752 24.3887C23.0803 24.6534 23.3554 25.176 23.3554 25.9753C23.3554 27.1219 23.3451 28.0468 23.3451 28.3278C23.3451 28.5573 23.4981 28.8238 23.9355 28.7395C27.3409 27.6033 29.794 24.3921 29.794 20.606C29.794 15.8709 25.9563 12.0332 21.2212 12.0332Z" fill="#C89446"/>
</svg>
