<svg width="27" height="27" viewBox="0 0 27 27" fill="none" xmlns="http://www.w3.org/2000/svg">
<path d="M13.4357 8.22473C12.0723 8.22473 10.7647 8.76635 9.80062 9.73043C8.83654 10.6945 8.29492 12.0021 8.29492 13.3655C8.29492 14.7289 8.83654 16.0365 9.80062 17.0006C10.7647 17.9647 12.0723 18.5063 13.4357 18.5063C14.7991 18.5063 16.1067 17.9647 17.0708 17.0006C18.0349 16.0365 18.5765 14.7289 18.5765 13.3655C18.5765 12.0021 18.0349 10.6945 17.0708 9.73043C16.1067 8.76635 14.7991 8.22473 13.4357 8.22473ZM13.4357 16.7041C12.5499 16.7041 11.7005 16.3523 11.0742 15.7259C10.4478 15.0996 10.096 14.2501 10.096 13.3644C10.096 12.4786 10.4478 11.6292 11.0742 11.0029C11.7005 10.3765 12.5499 10.0247 13.4357 10.0247C14.3214 10.0247 15.1709 10.3765 15.7972 11.0029C16.4236 11.6292 16.7754 12.4786 16.7754 13.3644C16.7754 14.2501 16.4236 15.0996 15.7972 15.7259C15.1709 16.3523 14.3214 16.7041 13.4357 16.7041Z" fill="#C89446"/>
<path d="M18.7766 9.23423C19.4385 9.23423 19.9751 8.69766 19.9751 8.03576C19.9751 7.37386 19.4385 6.83728 18.7766 6.83728C18.1147 6.83728 17.5781 7.37386 17.5781 8.03576C17.5781 8.69766 18.1147 9.23423 18.7766 9.23423Z" fill="#C89446"/>
<path d="M22.918 6.81726C22.6606 6.15263 22.2673 5.54906 21.7632 5.04518C21.2592 4.5413 20.6554 4.14823 19.9907 3.89111C19.2129 3.59911 18.3911 3.44123 17.5604 3.42417C16.4898 3.37748 16.1507 3.36414 13.4358 3.36414C10.7209 3.36414 10.3729 3.36414 9.31116 3.42417C8.48111 3.44035 7.65993 3.59827 6.88308 3.89111C6.21818 4.14793 5.6143 4.5409 5.1102 5.04481C4.60609 5.54873 4.21289 6.15245 3.95582 6.81726C3.66377 7.59506 3.50624 8.4169 3.48999 9.24756C3.44219 10.3171 3.42773 10.6562 3.42773 13.3722C3.42773 16.0871 3.42773 16.4329 3.48999 17.4968C3.50667 18.3284 3.66343 19.1489 3.95582 19.9282C4.21361 20.5928 4.6072 21.1963 5.11142 21.7001C5.61565 22.204 6.21943 22.5971 6.88419 22.8544C7.65957 23.1581 8.48109 23.3273 9.31339 23.3547C10.384 23.4014 10.7231 23.4158 13.438 23.4158C16.1529 23.4158 16.5009 23.4158 17.5626 23.3547C18.3932 23.3378 19.215 23.1803 19.9929 22.8888C20.6575 22.6311 21.261 22.2377 21.7651 21.7337C22.2691 21.2297 22.6625 20.6261 22.9202 19.9616C23.2126 19.1834 23.3694 18.3629 23.386 17.5313C23.4338 16.4618 23.4483 16.1227 23.4483 13.4067C23.4483 10.6906 23.4483 10.346 23.386 9.28203C23.3731 8.43962 23.2147 7.60577 22.918 6.81726ZM21.5639 17.4145C21.5567 18.0553 21.4397 18.69 21.2181 19.2912C21.0511 19.7235 20.7955 20.1161 20.4677 20.4437C20.1399 20.7713 19.7472 21.0267 19.3148 21.1934C18.7202 21.414 18.0922 21.531 17.4581 21.5392C16.402 21.5881 16.104 21.6003 13.3958 21.6003C10.6853 21.6003 10.4085 21.6003 9.33229 21.5392C8.6985 21.5314 8.0708 21.4144 7.47676 21.1934C7.04283 21.0277 6.6485 20.7728 6.3193 20.4452C5.99009 20.1175 5.73334 19.7243 5.56565 19.2912C5.34713 18.6965 5.23024 18.0692 5.21989 17.4357C5.17208 16.3795 5.16097 16.0815 5.16097 13.3733C5.16097 10.6639 5.16097 10.3871 5.21989 9.30982C5.22708 8.66947 5.34402 8.0351 5.56565 7.43429C5.90473 6.55711 6.59958 5.8667 7.47676 5.53095C8.0711 5.31098 8.69861 5.19405 9.33229 5.1852C10.3896 5.13739 10.6864 5.12405 13.3958 5.12405C16.1051 5.12405 16.3831 5.12405 17.4581 5.1852C18.0923 5.19283 18.7204 5.30979 19.3148 5.53095C19.7472 5.69802 20.1399 5.95365 20.4676 6.28142C20.7954 6.6092 21.051 7.00189 21.2181 7.43429C21.4366 8.02902 21.5535 8.65629 21.5639 9.28981C21.6117 10.3471 21.6239 10.6439 21.6239 13.3533C21.6239 16.0615 21.6239 16.3528 21.5761 17.4157H21.5639V17.4145Z" fill="#C89446"/>
</svg>
