<svg width="32" height="32" viewBox="0 0 32 32" fill="none" xmlns="http://www.w3.org/2000/svg">
<path d="M15.9993 9.83606C14.3642 9.83606 12.796 10.4856 11.6398 11.6418C10.4835 12.7981 9.83398 14.3662 9.83398 16.0014C9.83398 17.6365 10.4835 19.2047 11.6398 20.3609C12.796 21.5172 14.3642 22.1667 15.9993 22.1667C17.6345 22.1667 19.2026 21.5172 20.3589 20.3609C21.5151 19.2047 22.1646 17.6365 22.1646 16.0014C22.1646 14.3662 21.5151 12.7981 20.3589 11.6418C19.2026 10.4856 17.6345 9.83606 15.9993 9.83606ZM15.9993 20.0054C14.937 20.0054 13.9183 19.5834 13.1671 18.8323C12.416 18.0811 11.994 17.0623 11.994 16.0001C11.994 14.9378 12.416 13.919 13.1671 13.1679C13.9183 12.4167 14.937 11.9947 15.9993 11.9947C17.0616 11.9947 18.0804 12.4167 18.8315 13.1679C19.5827 13.919 20.0047 14.9378 20.0047 16.0001C20.0047 17.0623 19.5827 18.0811 18.8315 18.8323C18.0804 19.5834 17.0616 20.0054 15.9993 20.0054Z" fill="#C89446"/>
<path d="M22.408 11.0467C23.2019 11.0467 23.8454 10.4031 23.8454 9.60933C23.8454 8.81551 23.2019 8.172 22.408 8.172C21.6142 8.172 20.9707 8.81551 20.9707 9.60933C20.9707 10.4031 21.6142 11.0467 22.408 11.0467Z" fill="#C89446"/>
<path d="M27.3766 8.14805C27.068 7.35095 26.5963 6.62709 25.9917 6.02279C25.3872 5.41849 24.6632 4.94708 23.866 4.63871C22.9331 4.28852 21.9475 4.09917 20.9513 4.07871C19.6673 4.02271 19.2606 4.00671 16.0046 4.00671C12.7486 4.00671 12.3313 4.00671 11.058 4.07871C10.0625 4.09812 9.07763 4.28752 8.14595 4.63871C7.34853 4.94672 6.62431 5.41801 6.01973 6.02235C5.41516 6.6267 4.94359 7.35075 4.63529 8.14805C4.28503 9.08086 4.09611 10.0665 4.07662 11.0627C4.01929 12.3454 4.00195 12.752 4.00195 16.0094C4.00195 19.2654 4.00195 19.68 4.07662 20.956C4.09662 21.9534 4.28462 22.9374 4.63529 23.872C4.94446 24.6691 5.41648 25.3928 6.0212 25.9971C6.62592 26.6013 7.35004 27.0728 8.14729 27.3814C9.0772 27.7456 10.0624 27.9486 11.0606 27.9814C12.3446 28.0374 12.7513 28.0547 16.0073 28.0547C19.2633 28.0547 19.6806 28.0547 20.954 27.9814C21.9501 27.9611 22.9356 27.7722 23.8686 27.4227C24.6656 27.1136 25.3895 26.6418 25.9939 26.0373C26.5984 25.4329 27.0702 24.7091 27.3793 23.912C27.73 22.9787 27.918 21.9947 27.938 20.9974C27.9953 19.7147 28.0126 19.308 28.0126 16.0507C28.0126 12.7934 28.0126 12.38 27.938 11.104C27.9224 10.0937 27.7325 9.09371 27.3766 8.14805ZM25.7526 20.8574C25.744 21.6258 25.6038 22.387 25.338 23.108C25.1377 23.6265 24.8312 24.0974 24.438 24.4903C24.0449 24.8832 23.5739 25.1895 23.0553 25.3894C22.3423 25.654 21.5891 25.7942 20.8286 25.804C19.562 25.8627 19.2046 25.8774 15.9566 25.8774C12.706 25.8774 12.374 25.8774 11.0833 25.804C10.3232 25.7947 9.57039 25.6545 8.85795 25.3894C8.33754 25.1907 7.86462 24.885 7.46981 24.492C7.07499 24.099 6.76707 23.6275 6.56595 23.108C6.30388 22.3948 6.1637 21.6425 6.15129 20.8827C6.09395 19.616 6.08062 19.2587 6.08062 16.0107C6.08062 12.7614 6.08062 12.4294 6.15129 11.1374C6.1599 10.3694 6.30016 9.60861 6.56595 8.88805C6.97262 7.83605 7.80595 7.00805 8.85795 6.60538C9.57074 6.34157 10.3233 6.20133 11.0833 6.19071C12.3513 6.13338 12.7073 6.11738 15.9566 6.11738C19.206 6.11738 19.5393 6.11738 20.8286 6.19071C21.5892 6.19986 22.3424 6.34014 23.0553 6.60538C23.5739 6.80574 24.0448 7.11232 24.4379 7.50542C24.831 7.89852 25.1376 8.36948 25.338 8.88805C25.6 9.60131 25.7402 10.3536 25.7526 11.1134C25.81 12.3814 25.8246 12.7374 25.8246 15.9867C25.8246 19.2347 25.8246 19.584 25.7673 20.8587H25.7526V20.8574Z" fill="#C89446"/>
</svg>
