<svg width="42" height="42" viewBox="0 0 42 42" fill="none" xmlns="http://www.w3.org/2000/svg">
<rect width="41.2565" height="41.2565" rx="20.6283" fill="#222222"/>
<path d="M14.5974 16.5002C15.636 16.5002 16.478 15.6583 16.478 14.6196C16.478 13.581 15.636 12.739 14.5974 12.739C13.5588 12.739 12.7168 13.581 12.7168 14.6196C12.7168 15.6583 13.5588 16.5002 14.5974 16.5002Z" fill="#C89446"/>
<path d="M18.2537 17.9251V28.3587H21.4932V23.1991C21.4932 21.8376 21.7494 20.5191 23.4374 20.5191C25.1023 20.5191 25.1229 22.0757 25.1229 23.285V28.3596H28.3642V22.6378C28.3642 19.8272 27.7591 17.6672 24.474 17.6672C22.8968 17.6672 21.8396 18.5328 21.4073 19.3519H21.3634V17.9251H18.2537ZM12.9746 17.9251H16.2193V28.3587H12.9746V17.9251Z" fill="#C89446"/>
</svg>
