<svg width="42" height="42" viewBox="0 0 42 42" fill="none" xmlns="http://www.w3.org/2000/svg">
<rect x="0.0078125" y="0.521484" width="41.2565" height="41.2565" rx="20.6283" fill="#222222"/>
<path d="M14.6052 17.0215C15.6439 17.0215 16.4858 16.1795 16.4858 15.1409C16.4858 14.1022 15.6439 13.2603 14.6052 13.2603C13.5666 13.2603 12.7246 14.1022 12.7246 15.1409C12.7246 16.1795 13.5666 17.0215 14.6052 17.0215Z" fill="#C89446"/>
<path d="M18.2615 18.4463V28.8799H21.501V23.7203C21.501 22.3588 21.7572 21.0403 23.4453 21.0403C25.1101 21.0403 25.1308 22.5969 25.1308 23.8062V28.8808H28.372V23.159C28.372 20.3484 27.7669 18.1885 24.4818 18.1885C22.9046 18.1885 21.8474 19.054 21.4151 19.8731H21.3713V18.4463H18.2615ZM12.9824 18.4463H16.2271V28.8799H12.9824V18.4463Z" fill="#C89446"/>
</svg>
