<svg width="56" height="42" viewBox="0 0 56 42" fill="none" xmlns="http://www.w3.org/2000/svg">
<rect x="14" y="0.521484" width="41.2565" height="41.2565" rx="20.6283" fill="#222222"/>
<path d="M34.2197 14.534C36.0198 14.534 37.716 15.332 38.959 16.5794V16.5831C38.959 15.9841 39.362 15.5309 39.9191 15.5309H40.0605C40.9396 15.5309 41.1157 16.3599 41.1157 16.6214L41.1194 25.9312C41.0582 26.5413 41.7493 26.8567 42.1332 26.4647C43.6253 24.9299 45.4136 18.5667 41.2041 14.8825C37.2783 11.4437 32.0092 12.0118 29.2078 13.9423C26.2303 15.9995 24.3271 20.5436 26.1758 24.8142C28.1947 29.4702 33.9662 30.8591 37.4013 29.4739C39.1402 28.7717 39.9419 31.1192 38.1345 31.8877C35.4104 33.0497 27.8189 32.9311 24.2733 26.7911C21.8779 22.6435 22.0046 15.3475 28.3605 11.5675C33.2184 8.67401 39.628 9.47568 43.4919 13.5098C47.5298 17.7311 47.2962 25.6291 43.3542 28.6995C41.5688 30.0958 38.9177 28.7378 38.9369 26.7034L38.917 26.0403C37.674 27.2715 36.0198 27.9936 34.2197 27.9936C30.6586 27.9936 27.5234 24.8577 27.5234 21.3003C27.5234 17.7046 30.6586 14.5355 34.2197 14.5355V14.534ZM38.6989 21.0431C38.564 18.437 36.6299 16.8675 34.2927 16.8675H34.2042C31.5104 16.8675 30.0139 18.9896 30.0139 21.3953C30.0139 24.0929 31.8213 25.7964 34.1932 25.7964C36.8406 25.7964 38.5788 23.8593 38.7055 21.5677L38.6989 21.0431Z" fill="#C89446"/>
</svg>
